<svg width="2200" height="2200" viewBox="0 0 2200 2200" fill="none" xmlns="http://www.w3.org/2000/svg">
<path d="M1006 694C998.545 689.801 993.457 677.068 988.656 670C976.785 652.525 964.445 635.086 950.728 619C904.049 564.257 848.033 512.521 778 490.194C721.945 472.324 656.896 474.194 611 515.174C603.204 522.134 596.521 530.362 590.671 539C582.049 551.729 575.398 565.336 570.745 580C562.069 607.342 561.429 637.694 564.17 666C570.056 726.78 596.959 785.18 629.692 836C643.186 856.951 659.883 875.937 673 897C659.708 889.921 644.357 885.756 630 881.431C595.599 871.069 560.094 863.662 524 868.156C517.057 869.02 509.385 870.736 503 873.641C497.197 876.281 491.643 879.688 487.015 884.09C467.682 902.479 472.356 932.84 481.873 955C492.781 980.401 511.698 1001.7 531 1021C578.621 1068.62 638.455 1101.13 699 1129.12C717.307 1137.58 736.052 1144.92 755 1151.8C765.886 1155.75 777.515 1161.3 789 1163C787.783 1172.63 787.244 1182.45 789.503 1192C793.909 1210.63 807.921 1224.38 823 1235.14C855.515 1258.34 898.139 1267.79 937 1273.42C973.511 1278.71 1009.29 1279.61 1046 1277.09C1065.18 1275.77 1085.29 1274.58 1104 1269.71C1119.95 1265.56 1136.31 1261.39 1151 1253.68C1156.15 1250.98 1161.36 1248.02 1166 1244.5C1168.71 1242.43 1171.45 1239.32 1175 1238.84C1177.92 1238.44 1181.21 1239.93 1184 1240.62C1189.29 1241.95 1194.65 1243.15 1200 1244.2C1217.71 1247.67 1236 1250.17 1254 1250.96C1313.81 1253.58 1373.8 1239.35 1429 1217.2C1455.16 1206.7 1480.17 1192.91 1503 1176.42C1515.04 1167.73 1526.69 1158.46 1536.25 1147C1540.62 1141.75 1544.67 1136.13 1547.73 1130C1549.64 1126.17 1550.9 1122.23 1551.56 1118C1556.58 1086.14 1513.97 1081 1491 1081C1499.49 1074.94 1509.08 1070.21 1518 1064.8C1532.59 1055.94 1546.95 1046.66 1561 1036.97C1620.77 995.778 1679.27 944.461 1712.89 879C1720.33 864.517 1726.11 849.007 1729.2 833C1731.57 820.704 1731.78 808.406 1730.91 796C1730.34 787.837 1728.12 779.531 1724.99 772C1702.74 718.509 1633.74 718.879 1586 727.25C1577.61 728.721 1569.27 731.281 1561 733.374C1529.09 741.454 1499.1 756.201 1470 771.259C1460.62 776.111 1451.86 783.269 1442 787C1462.18 734.674 1472 678.921 1472 623C1472 574.949 1461.62 525.848 1435.31 485C1422.23 464.7 1405.48 446.444 1386 432.155C1329.21 390.506 1251.57 384.714 1187 410.864C1100.97 445.706 1047.08 527.933 1021.71 614C1014.24 639.331 1006.07 667.376 1006 694Z" fill="white"/>
<path d="M1258 520.425C1177.37 531.401 1134.04 610.443 1109.31 680C1104.98 692.171 1101.28 704.527 1097.92 717C1087.93 754.087 1088.03 810.556 1047 829.134C1011.05 845.412 977.225 815.291 958.355 787C953.854 780.253 950.344 772.957 946.201 766C909.069 703.645 862.843 639.402 794 609.719C761.615 595.755 718.305 590.051 688 612.159C663.395 630.109 654 658.692 654 688C654 732.146 671.52 772.985 694.576 810C701.925 821.798 710.266 832.77 718.425 844C728.407 857.738 740.031 870.972 752.001 883C761.647 892.693 770.987 902.583 781 911.911C789.276 919.619 798.213 926.945 805.101 936C810.471 943.059 817.826 953.563 815.442 963C810.381 983.033 781.66 984.891 765 983.957C757.943 983.561 750.603 979.799 744 977.414C733.47 973.61 722.694 970.336 712 967.026C681.521 957.591 650.647 951.842 619 948.83C603.794 947.383 586.354 947.412 572 953.464C565.524 956.195 558.051 961.789 556.394 969C553.873 979.975 558.201 990.848 563.811 1000C575.64 1019.3 594.078 1033.37 612 1046.63C646.468 1072.12 686.387 1089.73 726 1105.45C756.895 1117.71 789.434 1128.91 822 1135.79C833.881 1138.3 846.097 1135.69 858 1137.93C863.006 1138.88 868.394 1140.44 873 1142.63C876.574 1144.34 880.043 1146.53 882.985 1149.19C885.19 1151.18 887.152 1153.42 888.633 1156C900.514 1176.72 870.371 1186.33 869.213 1205C868.132 1222.42 888.228 1234.27 902 1239.99C931.962 1252.42 964.771 1257 997 1257C1029.71 1257 1062.69 1252.54 1093 1239.57C1106.59 1233.76 1119.01 1225.58 1129.99 1215.71C1134.32 1211.81 1138.98 1202.3 1145.01 1201.27C1151.21 1200.21 1158.98 1204.19 1165 1205.39C1179.51 1208.27 1194.35 1210.91 1209 1212.84C1239.22 1216.82 1269.63 1218.37 1300 1217.04C1319.68 1216.18 1339.61 1215.74 1359 1211.64C1387.66 1205.58 1417.4 1198.75 1442 1181.97C1451.27 1175.65 1463.02 1166.15 1463.79 1154C1464.5 1142.73 1454.37 1135.65 1445 1132.06C1424.61 1124.26 1402.18 1127.71 1382 1119.55C1369.34 1114.43 1356.87 1102.67 1362.76 1088C1371.29 1066.78 1393.75 1062.6 1413 1057.22C1426.29 1053.49 1439.23 1047.8 1452 1042.6C1512.41 1017.99 1572.57 982.786 1615.57 933C1619.77 928.142 1623.84 923.227 1627.57 918C1644.45 894.382 1665.3 852.206 1638 828.185C1620.93 813.166 1591.84 815.475 1571 818.92C1513.98 828.345 1460.46 858.258 1412 888.424C1393.24 900.102 1369.59 911.892 1347 911.999C1336.59 912.049 1325.96 910.251 1318.01 902.895C1292.45 879.225 1317.46 844.58 1330.58 822C1333.84 816.378 1336.99 810.685 1340.14 805C1373.4 745.005 1392.45 671.236 1372.41 604C1357.8 554.96 1311.69 513.117 1258 520.425Z" fill="#F49220"/>
<path d="M943 1379V1647V1721C943 1730.16 941.532 1739.98 942.184 1749C942.813 1757.68 945.737 1767.87 948.814 1776C954.246 1790.35 960.381 1804.11 970.325 1816C988.607 1837.85 1015.56 1847.72 1043 1851.28C1057.67 1853.19 1073.21 1852.17 1088 1852C1091.61 1851.95 1101.58 1852.42 1103.97 1849.4C1105.47 1847.51 1105 1844.24 1105 1842V1823C1077.12 1823 1050.23 1820.05 1034.07 1794C1019.57 1770.65 1023 1740.19 1023 1714V1557H1088L1089 1507H1018V1379H943Z" fill="white"/>
<path d="M137 1798H210V1613L211 1617C213.43 1611.26 213.343 1604.09 215.205 1598C219.783 1583.03 228.338 1568.68 240 1558.17C284.686 1517.89 364.081 1529.24 389.688 1586C400.972 1611.01 398 1639.28 398 1666V1803H478V1683V1645C478 1638.12 478.675 1630.82 477.7 1624C475.25 1606.85 466.586 1589.41 457.308 1575C410.798 1502.79 307.014 1482.8 230 1512.09C194.355 1525.64 162.03 1549.42 144.259 1584C141.247 1589.86 137.962 1596.45 136.839 1603C135.973 1608.05 137 1613.85 137 1619V1656V1798ZM774 1757C762.553 1757.94 751.192 1761.77 740 1764.18C720.125 1768.47 697.992 1771.5 678 1766.52C655.071 1760.82 638.303 1742.66 626.604 1723C619.287 1710.7 615.357 1697.78 611.965 1684C601.921 1643.2 606.352 1597.32 637.039 1566.01C673.015 1529.31 736.46 1525.45 770.535 1567C778.642 1576.89 784.068 1587.83 787.72 1600C794.851 1623.77 793 1649.47 793 1674C793 1717.66 794 1761.29 794 1805H869V1674C869 1658.53 870.32 1642.4 868.83 1627C866.484 1602.75 855.324 1577.14 838.536 1559.42C802.75 1521.66 753.836 1507 703 1507C678.513 1507 652.958 1510.34 630 1519.35C580.812 1538.66 541.665 1575.32 532.321 1629C527.205 1658.39 533.184 1689.07 542.33 1717C547.09 1731.54 552.474 1745.17 562.439 1757C583.725 1782.26 611.706 1796.75 643 1805.57C674.829 1814.54 713.15 1812.43 744 1800.81C751.237 1798.08 758.238 1794.91 765 1791.14C767.629 1789.67 771.283 1788.09 772.972 1785.47C774.497 1783.11 773.999 1779.67 774 1777V1757Z" fill="white"/>
<path d="M1145 1510C1145 1554.37 1146 1598.61 1146 1643C1146 1674.59 1143.72 1705.9 1161.06 1734C1177.09 1759.97 1201.39 1778.79 1229 1791.18C1243.58 1797.72 1258.46 1802.29 1274 1805.96C1284.83 1808.52 1295.95 1809.33 1307 1810.09C1370.64 1814.47 1442.52 1794.95 1475.05 1735C1479.87 1726.11 1484.87 1715.1 1486.24 1705C1486.94 1699.88 1486 1694.2 1486 1689V1653V1513H1417V1691C1413.13 1691.53 1413.02 1697.6 1412.12 1701C1409.69 1710.28 1405.63 1719.61 1401 1728C1388.38 1750.83 1368.21 1768.29 1343 1775.59C1296.54 1789.03 1247.26 1759.54 1231.26 1715C1221.97 1689.13 1225 1661.07 1225 1634C1225 1592.71 1224 1551.37 1224 1510H1145Z" fill="white"/>
<path d="M1558 1812H1628C1628 1759.32 1632 1706.68 1632 1654C1632 1623.72 1630.19 1588.37 1651.3 1564C1669.84 1542.6 1698.76 1541 1725 1541V1515C1700.19 1511.8 1676.12 1507.39 1651 1511.44C1602.84 1519.19 1571.6 1556.51 1559.39 1602C1557.14 1610.38 1558 1619.4 1558 1628V1671V1812Z" fill="white"/>
<path d="M1974 1768C1966.81 1768.59 1960.03 1771.16 1953 1772.6C1927.96 1777.73 1902.44 1784.19 1877 1778.12C1854.71 1772.8 1838.34 1754.75 1826.68 1736C1820.34 1725.79 1816.83 1715.33 1813.25 1704C1799.1 1659.21 1804.55 1605.99 1841 1573.17C1870.8 1546.34 1916.55 1539.4 1951 1561.7C1960.06 1567.56 1967.48 1575.34 1973.84 1584C1979.63 1591.87 1984.26 1601.57 1986.85 1611C1993.59 1635.61 1991.99 1661.73 1992 1687C1992.02 1730.26 1994 1773.72 1994 1817H2069V1699C2069 1681.23 2070.52 1662.69 2068.83 1645C2065.9 1614.24 2053.02 1585.79 2031 1564C2010.87 1544.08 1984.25 1531.41 1957 1524.63C1891.03 1508.21 1810.33 1521.6 1763.17 1574C1754.68 1583.43 1748.54 1593.84 1742.7 1605C1736.75 1616.38 1733.26 1629.32 1731.43 1642C1727.2 1671.2 1732.11 1700.23 1741.33 1728C1745.52 1740.59 1750.01 1753.21 1757.92 1764C1776.62 1789.49 1805.81 1806.91 1836 1815.25C1870.05 1824.66 1911.95 1824.71 1945 1811.27C1951.79 1808.51 1958.58 1805.72 1965 1802.14C1967.63 1800.67 1971.28 1799.09 1972.97 1796.47C1974.5 1794.11 1974 1790.67 1974 1788V1768Z" fill="white"/>
</svg>
