<svg width="1259" height="884" viewBox="0 0 1259 884" fill="none" xmlns="http://www.w3.org/2000/svg">
<path d="M533 299C525.545 294.801 520.457 282.068 515.656 275C503.785 257.525 491.445 240.086 477.728 224C431.049 169.257 375.033 117.521 305 95.1937C248.945 77.3237 183.896 79.1937 138 120.174C130.204 127.134 123.521 135.362 117.671 144C109.049 156.729 102.398 170.336 97.745 185C89.069 212.342 88.429 242.694 91.17 271C97.056 331.78 123.959 390.18 156.692 441C170.186 461.951 186.883 480.937 200 502C186.708 494.921 171.357 490.756 157 486.431C122.599 476.069 87.094 468.662 51 473.156C44.057 474.02 36.385 475.736 30 478.641C24.197 481.281 18.643 484.688 14.015 489.09C-5.31801 507.479 -0.644039 537.84 8.87296 560C19.781 585.401 38.698 606.7 58 626C105.621 673.62 165.455 706.13 226 734.12C244.307 742.58 263.052 749.92 282 756.8C292.886 760.75 304.515 766.3 316 768C314.783 777.63 314.244 787.45 316.503 797C320.909 815.63 334.921 829.38 350 840.14C382.515 863.34 425.139 872.79 464 878.42C500.511 883.71 536.29 884.61 573 882.09C592.18 880.77 612.29 879.58 631 874.71C646.95 870.56 663.31 866.39 678 858.68C683.15 855.98 688.36 853.02 693 849.5C695.71 847.43 698.45 844.32 702 843.84C704.92 843.44 708.21 844.93 711 845.62C716.29 846.95 721.65 848.15 727 849.2C744.71 852.67 763 855.17 781 855.96C840.81 858.58 900.8 844.35 956 822.2C982.16 811.7 1007.17 797.91 1030 781.42C1042.04 772.73 1053.69 763.46 1063.25 752C1067.62 746.75 1071.67 741.13 1074.73 735C1076.64 731.17 1077.9 727.23 1078.56 723C1083.58 691.14 1040.97 686 1018 686C1026.49 679.94 1036.08 675.21 1045 669.8C1059.59 660.94 1073.95 651.66 1088 641.97C1147.77 600.778 1206.27 549.461 1239.89 484C1247.33 469.517 1253.11 454.007 1256.2 438C1258.57 425.704 1258.78 413.406 1257.91 401C1257.34 392.837 1255.12 384.531 1251.99 377C1229.74 323.509 1160.74 323.879 1113 332.25C1104.61 333.721 1096.27 336.281 1088 338.374C1056.09 346.454 1026.1 361.201 997 376.259C987.62 381.111 978.86 388.269 969 392C989.18 339.674 999 283.921 999 228C999 179.949 988.62 130.848 962.31 89.9997C949.23 69.6997 932.48 51.4437 913 37.1547C856.21 -4.4943 778.57 -10.2863 714 15.8637C627.97 50.7057 574.08 132.933 548.71 219C541.24 244.331 533.07 272.376 533 299Z" fill="white"/>
<path d="M785 125.425C704.37 136.401 661.04 215.443 636.31 285C631.98 297.171 628.28 309.527 624.92 322C614.93 359.087 615.03 415.556 574 434.134C538.05 450.412 504.225 420.291 485.355 392C480.854 385.253 477.344 377.957 473.201 371C436.069 308.645 389.843 244.402 321 214.719C288.615 200.755 245.305 195.051 215 217.159C190.395 235.109 181 263.692 181 293C181 337.146 198.52 377.985 221.576 415C228.925 426.798 237.266 437.77 245.425 449C255.407 462.738 267.031 475.972 279.001 488C288.647 497.693 297.987 507.583 308 516.911C316.276 524.619 325.213 531.945 332.101 541C337.471 548.059 344.826 558.563 342.442 568C337.381 588.033 308.66 589.891 292 588.957C284.943 588.561 277.603 584.799 271 582.414C260.47 578.61 249.694 575.336 239 572.026C208.521 562.591 177.647 556.842 146 553.83C130.794 552.383 113.354 552.412 99 558.464C92.524 561.195 85.051 566.789 83.394 574C80.873 584.975 85.2009 595.848 90.8109 605C102.64 624.3 121.078 638.37 139 651.63C173.468 677.12 213.387 694.73 253 710.45C283.895 722.71 316.434 733.91 349 740.79C360.881 743.3 373.097 740.69 385 742.93C390.006 743.88 395.394 745.44 400 747.63C403.574 749.34 407.043 751.53 409.985 754.19C412.19 756.18 414.152 758.42 415.633 761C427.514 781.72 397.371 791.33 396.213 810C395.132 827.42 415.228 839.27 429 844.99C458.962 857.42 491.771 862 524 862C556.71 862 589.69 857.54 620 844.57C633.59 838.76 646.01 830.58 656.99 820.71C661.32 816.81 665.98 807.3 672.01 806.27C678.21 805.21 685.98 809.19 692 810.39C706.51 813.27 721.35 815.91 736 817.84C766.22 821.82 796.63 823.37 827 822.04C846.68 821.18 866.61 820.74 886 816.64C914.66 810.58 944.4 803.75 969 786.97C978.27 780.65 990.02 771.15 990.79 759C991.5 747.73 981.37 740.65 972 737.06C951.61 729.26 929.18 732.71 909 724.55C896.34 719.43 883.87 707.67 889.76 693C898.29 671.78 920.75 667.6 940 662.22C953.29 658.49 966.23 652.8 979 647.6C1039.41 622.99 1099.57 587.786 1142.57 538C1146.77 533.142 1150.84 528.227 1154.57 523C1171.45 499.382 1192.3 457.206 1165 433.185C1147.93 418.166 1118.84 420.475 1098 423.92C1040.98 433.345 987.46 463.258 939 493.424C920.24 505.102 896.59 516.892 874 516.999C863.59 517.049 852.96 515.251 845.01 507.895C819.45 484.225 844.46 449.58 857.58 427C860.84 421.378 863.99 415.685 867.14 410C900.4 350.005 919.45 276.236 899.41 209C884.8 159.96 838.69 118.117 785 125.425Z" fill="#666666"/>
</svg>
