<svg width="2200" height="1143" viewBox="0 0 2200 1143" fill="none" xmlns="http://www.w3.org/2000/svg">
<path d="M1869.45 778.97C1878.93 778.97 1886.92 782.24 1893.46 788.768C1900 795.305 1903.27 803.315 1903.27 812.789C1903.27 822.263 1900 830.268 1893.46 836.809C1886.92 843.346 1878.93 846.604 1869.45 846.604C1859.97 846.604 1851.97 843.346 1845.43 836.809C1838.9 830.268 1835.63 822.263 1835.63 812.789C1835.63 803.315 1838.9 795.305 1845.43 788.768C1851.97 782.24 1859.97 778.97 1869.45 778.97Z" fill="white"/>
<path d="M1889.28 897.338C1884.06 892.126 1877.69 889.488 1870.22 889.315C1869.95 889.306 1869.72 889.246 1869.45 889.246C1868.25 889.246 1867.14 889.428 1866 889.557C1865.43 889.618 1864.85 889.614 1864.29 889.709C1863.96 889.765 1863.62 889.835 1863.29 889.904C1858.1 890.983 1853.53 893.43 1849.62 897.338C1844.22 902.739 1841.52 909.35 1841.52 917.173V1135.3H1897.38V917.173C1897.38 909.35 1894.68 902.739 1889.28 897.338Z" fill="white"/>
<path d="M1381.76 976.981C1379.79 981.56 1375.7 985.649 1369.49 989.231C1363.29 992.836 1354.62 995.768 1343.53 998.056C1332.4 1000.35 1317.87 1001.49 1299.9 1001.49H1279.32C1272.45 1001.49 1265.26 1001.33 1257.75 1001C1258.06 991.527 1259.96 982.21 1263.38 973.061C1266.81 963.912 1271.63 955.828 1277.84 948.798C1284.04 941.776 1291.73 936.144 1300.88 931.886C1310.02 927.645 1320.65 925.518 1332.74 925.518C1347.44 925.518 1359.77 928.628 1369.74 934.832C1379.7 941.035 1384.69 950.353 1384.69 962.772C1384.69 967.663 1383.71 972.411 1381.76 976.981ZM1432.23 932.38C1427.66 922.572 1420.88 913.991 1411.9 906.648C1402.91 899.288 1391.88 893.41 1378.81 889C1365.74 884.586 1350.7 882.381 1333.72 882.381C1314.43 882.381 1296.72 885.574 1280.54 891.946C1264.37 898.318 1250.31 907.311 1238.39 918.899C1226.45 930.5 1217.15 944.383 1210.45 960.563C1203.74 976.734 1200.41 994.629 1200.41 1014.24C1200.41 1034.82 1203.83 1053.04 1210.7 1068.88C1217.56 1084.74 1226.95 1098.13 1238.88 1109.07C1250.8 1120.02 1264.68 1128.28 1280.54 1133.83C1296.38 1139.38 1313.46 1142.16 1331.76 1142.16C1344.83 1142.16 1356.83 1141.17 1367.78 1139.21C1378.73 1137.26 1388.37 1134.97 1396.7 1132.35C1400.79 1131.07 1404.52 1129.75 1407.93 1128.39C1407.99 1128.37 1408.05 1128.35 1408.1 1128.33C1410.76 1127.24 1413.18 1125.61 1415.36 1123.43C1419.74 1119.06 1421.92 1113.7 1421.92 1107.36C1421.92 1104.59 1421.43 1102.05 1420.6 1099.66C1419.9 1097.66 1418.93 1095.79 1417.65 1094.05C1416.95 1093.1 1416.23 1092.16 1415.36 1091.28C1410.98 1086.91 1405.63 1084.72 1399.29 1084.72C1396.12 1084.72 1393.21 1085.27 1390.53 1086.36C1390.52 1086.36 1390.51 1086.37 1390.5 1086.37C1388.84 1086.99 1387.25 1087.62 1385.43 1088.25C1379.7 1090.2 1373.25 1091.84 1366.07 1093.14C1358.88 1094.46 1351.04 1095.11 1342.54 1095.11C1317.38 1095.11 1298.02 1089.96 1284.46 1079.66C1270.89 1069.38 1262.81 1055.89 1260.2 1039.23C1266.73 1039.56 1272.85 1039.8 1278.58 1039.97C1284.29 1040.14 1290.41 1040.2 1296.95 1040.2C1325.06 1040.2 1348.25 1038.33 1366.56 1034.57C1384.86 1030.82 1399.4 1025.59 1410.18 1018.88C1420.96 1012.2 1428.47 1004.18 1432.73 994.876C1436.97 985.558 1439.1 975.188 1439.1 963.747C1439.1 952.636 1436.8 942.179 1432.23 932.38Z" fill="white"/>
<path d="M1703.71 1044.61C1699.95 1054.43 1694.81 1062.75 1688.27 1069.62C1681.73 1076.47 1673.81 1081.87 1664.5 1085.79C1655.19 1089.71 1644.97 1091.67 1633.87 1091.67C1622.42 1091.67 1612.14 1089.63 1602.99 1085.54C1593.84 1081.47 1585.91 1075.91 1579.21 1068.88C1572.52 1061.86 1567.37 1053.53 1563.78 1043.89C1560.18 1034.24 1558.39 1023.71 1558.39 1012.26C1558.39 1000.83 1560.18 990.215 1563.78 980.407C1567.37 970.609 1572.52 962.201 1579.21 955.166C1585.91 948.144 1593.84 942.59 1602.99 938.505C1612.14 934.42 1622.42 932.38 1633.87 932.38C1644.97 932.38 1655.19 934.42 1664.5 938.505C1673.81 942.59 1681.73 948.234 1688.27 955.412C1694.81 962.603 1699.95 971.103 1703.71 980.901C1707.46 990.709 1709.34 1001.17 1709.34 1012.26C1709.34 1024.03 1707.46 1034.82 1703.71 1044.61ZM1756.7 782.293C1751.35 776.943 1744.8 774.266 1737.04 774.266C1729.27 774.266 1722.71 776.943 1717.36 782.293C1712.05 787.612 1709.38 794.123 1709.34 801.812C1709.34 801.864 1709.33 801.916 1709.33 801.916C1709.33 802.025 1709.34 802.072 1709.34 802.124V920.129C1701.18 909.672 1689.9 900.766 1675.52 893.41C1661.15 886.055 1644.49 882.381 1625.54 882.381C1607.56 882.381 1590.98 885.574 1575.79 891.942C1560.59 898.318 1547.36 907.307 1536.08 918.899C1524.81 930.5 1515.99 944.228 1509.62 960.069C1503.25 975.928 1500.06 993.316 1500.06 1012.26C1500.06 1030.9 1503.41 1048.22 1510.12 1064.22C1516.8 1080.24 1526.04 1093.96 1537.81 1105.4C1549.56 1116.84 1563.54 1125.82 1579.71 1132.35C1595.89 1138.89 1613.6 1142.16 1632.89 1142.16C1651.83 1142.16 1669.33 1139.21 1685.34 1133.33C1701.34 1127.46 1715.24 1118.63 1726.99 1106.86C1738.76 1095.1 1747.99 1080.4 1754.69 1062.75C1761.38 1045.1 1764.74 1024.36 1764.74 1000.5V801.968C1764.74 794.206 1762.06 787.651 1756.7 782.293Z" fill="white"/>
<path d="M828.738 942.916C822.86 930.016 814.599 919.065 803.986 910.072C793.364 901.092 780.706 894.226 766.004 889.491C751.293 884.756 735.282 882.378 717.972 882.378C700.648 882.378 684.711 884.756 670.178 889.491C655.636 894.226 643.052 901.092 632.443 910.072C621.812 919.065 613.482 930.016 607.444 942.916C601.392 955.825 598.373 970.45 598.373 986.777V1107.36C598.373 1115.19 601.071 1121.8 606.473 1127.2C611.866 1132.6 618.481 1135.29 626.313 1135.29C634.141 1135.29 640.743 1132.6 646.145 1127.2C651.546 1121.8 654.25 1115.19 654.25 1107.36V1001C654.25 978.784 659.556 961.873 670.178 950.263C680.791 938.671 696.719 932.871 717.972 932.871C738.877 932.871 754.728 938.671 765.51 950.263C776.296 961.873 781.685 978.784 781.685 1001V1107.36C781.685 1115.19 784.388 1121.8 789.79 1127.2C795.179 1132.6 801.794 1135.29 809.63 1135.29C817.453 1135.29 824.06 1132.6 829.457 1127.2C834.859 1121.8 837.562 1115.19 837.562 1107.36V986.777C837.562 970.45 834.621 955.825 828.738 942.916Z" fill="white"/>
<path d="M1122.54 1011.54C1107.5 1000.26 1086.43 992.836 1059.31 989.232L1009.31 982.86C995.919 981.235 985.622 978.199 978.436 973.789C971.245 969.388 967.654 962.937 967.654 954.438C967.654 934.507 986.597 924.54 1024.51 924.54C1038.23 924.54 1050.32 925.605 1060.78 927.719C1071.23 929.85 1080.22 932.298 1087.74 935.079C1088.98 935.538 1089.93 935.997 1091.08 936.457C1091.61 936.695 1092.13 936.916 1092.68 937.111C1095.06 937.973 1097.61 938.462 1100.38 938.462C1106.53 938.462 1111.71 936.353 1115.95 932.112C1120.19 927.871 1122.31 922.677 1122.31 916.534C1122.31 910.387 1120.19 905.198 1115.95 900.957C1113.85 898.856 1111.5 897.279 1108.93 896.218C1108.91 896.205 1108.88 896.192 1108.85 896.183C1107.05 895.317 1105.2 894.468 1103.18 893.657C1084.38 886.142 1058 882.382 1024.02 882.382C1003.76 882.382 986.528 884.431 972.31 888.507C958.093 892.605 946.579 898.236 937.755 905.414C928.931 912.614 922.472 920.857 918.391 930.171C914.307 939.489 912.271 949.366 912.271 959.823C912.271 971.917 914.475 982.297 918.885 990.943C923.299 999.611 929.425 1006.88 937.266 1012.75C945.106 1018.65 954.493 1023.29 965.444 1026.73C976.395 1030.16 988.403 1032.53 1001.48 1033.83L1039.71 1038.24C1057.35 1040.2 1069.6 1043.56 1076.47 1048.3C1083.32 1053.04 1086.76 1059.98 1086.76 1069.12C1086.76 1079.91 1081.37 1087.5 1070.58 1091.92C1059.8 1096.32 1045.91 1098.53 1028.92 1098.53C1015.85 1098.53 1003.76 1097.56 992.653 1095.6C981.537 1093.63 971.652 1091.26 963.001 1088.49C956.941 1086.54 951.812 1084.66 947.116 1082.8C946.861 1082.69 946.605 1082.58 946.349 1082.49C943.867 1081.53 941.19 1081.02 938.279 1081.02C932.141 1081.02 926.96 1083.14 922.732 1087.37C918.495 1091.6 916.381 1096.78 916.381 1102.92C916.381 1109.05 918.495 1114.23 922.732 1118.47C924.785 1120.52 927.077 1122.06 929.581 1123.12C929.719 1123.17 929.858 1123.23 929.997 1123.29C934.779 1125.22 940.168 1127.17 946.332 1129.17C956.945 1132.6 969.443 1135.62 983.829 1138.24C998.207 1140.85 1014.22 1142.16 1031.86 1142.16C1068.46 1142.16 1096.48 1134.8 1115.91 1120.1C1135.35 1105.4 1145.09 1085.79 1145.09 1061.28C1145.09 1039.4 1137.57 1022.81 1122.54 1011.54Z" fill="white"/>
<path d="M210.274 1011.54C195.234 1000.26 174.159 992.836 147.046 989.232L97.0473 982.86C83.6488 981.235 73.3519 978.199 66.1696 973.789C58.9787 969.388 55.3875 962.937 55.3875 954.438C55.3875 934.507 74.3309 924.54 112.244 924.54C125.967 924.54 138.053 925.605 148.51 927.719C158.963 929.85 167.952 932.298 175.472 935.079C176.715 935.538 177.659 935.997 178.816 936.457C179.34 936.695 179.869 936.916 180.41 937.111C182.793 937.973 185.34 938.462 188.112 938.462C194.259 938.462 199.444 936.353 203.685 932.112C207.926 927.871 210.045 922.677 210.045 916.534C210.045 910.387 207.926 905.198 203.685 900.957C201.58 898.856 199.237 897.279 196.663 896.218C196.637 896.205 196.611 896.192 196.581 896.183C194.779 895.317 192.934 894.468 190.911 893.657C172.115 886.142 145.738 882.382 111.754 882.382C91.4895 882.382 74.2616 884.431 60.0443 888.507C45.827 892.605 34.3086 898.236 25.4888 905.414C16.6648 912.614 10.2059 920.857 6.1253 930.171C2.04033 939.489 0 949.366 0 959.823C0 971.917 2.20493 982.297 6.61912 990.943C11.029 999.611 17.1543 1006.88 24.9993 1012.75C32.84 1018.65 42.2273 1023.29 53.1783 1026.73C64.125 1030.16 76.1373 1032.53 89.2066 1033.83L127.435 1038.24C145.079 1040.2 157.334 1043.56 164.2 1048.3C171.058 1053.04 174.493 1059.98 174.493 1069.12C174.493 1079.91 169.1 1087.5 158.313 1091.92C147.531 1096.32 133.643 1098.53 116.653 1098.53C103.58 1098.53 91.4895 1097.56 80.3869 1095.6C69.2712 1093.63 59.3815 1091.26 50.7307 1088.49C44.6748 1086.54 39.5458 1084.66 34.8501 1082.8C34.5945 1082.69 34.3389 1082.58 34.0833 1082.49C31.6011 1081.53 28.924 1081.02 26.013 1081.02C19.8704 1081.02 14.6894 1083.14 10.4615 1087.37C6.22926 1091.6 4.11097 1096.78 4.11097 1102.92C4.11097 1109.05 6.22926 1114.23 10.4615 1118.47C12.5192 1120.52 14.8064 1122.06 17.3146 1123.12C17.4532 1123.17 17.5918 1123.23 17.7304 1123.29C22.5128 1125.22 27.9017 1127.17 34.066 1129.17C44.6791 1132.6 57.1766 1135.62 71.5628 1138.24C85.936 1140.85 101.951 1142.16 119.595 1142.16C156.186 1142.16 184.209 1134.8 203.646 1120.1C223.084 1105.4 232.826 1085.79 232.826 1061.28C232.826 1039.4 225.302 1022.81 210.274 1011.54Z" fill="white"/>
<path d="M472.402 976.981C470.444 981.56 466.346 985.649 460.139 989.231C453.935 992.836 445.272 995.768 434.173 998.056C423.053 1000.35 408.52 1001.49 390.547 1001.49H369.966C363.1 1001.49 355.913 1001.33 348.398 1001C348.709 991.527 350.603 982.21 354.029 973.061C357.456 963.912 362.286 955.828 368.489 948.798C374.692 941.776 382.373 936.144 391.535 931.886C400.671 927.645 411.297 925.518 423.391 925.518C438.094 925.518 450.422 928.628 460.39 934.832C470.353 941.035 475.335 950.353 475.335 962.772C475.335 967.663 474.365 972.411 472.402 976.981ZM522.882 932.38C518.303 922.572 511.528 913.991 502.548 906.648C493.555 899.288 482.526 893.41 469.457 889C456.392 884.586 441.351 882.381 424.366 882.381C405.08 882.381 387.367 885.574 371.188 891.946C355.017 898.318 340.964 907.311 329.038 918.899C317.1 930.5 307.795 944.383 301.098 960.563C294.392 976.734 291.056 994.629 291.056 1014.24C291.056 1034.82 294.483 1053.04 301.345 1068.88C308.211 1084.74 317.594 1098.13 329.532 1109.07C341.445 1120.02 355.329 1128.28 371.188 1133.83C387.029 1139.38 404.106 1142.16 422.404 1142.16C435.473 1142.16 447.477 1141.17 458.428 1139.21C469.379 1137.26 479.021 1134.97 487.352 1132.35C491.437 1131.07 495.162 1129.75 498.576 1128.39C498.636 1128.37 498.697 1128.35 498.753 1128.33C501.413 1127.24 503.83 1125.61 506.005 1123.43C510.384 1119.06 512.572 1113.7 512.572 1107.36C512.572 1104.59 512.078 1102.05 511.246 1099.66C510.553 1097.66 509.578 1095.79 508.301 1094.05C507.599 1093.1 506.88 1092.16 506.005 1091.28C501.63 1086.91 496.28 1084.72 489.938 1084.72C486.771 1084.72 483.856 1085.27 481.179 1086.36L481.148 1086.37C479.494 1086.99 477.895 1087.62 476.076 1088.25C470.353 1090.2 463.903 1091.84 456.712 1093.14C449.526 1094.46 441.689 1095.11 433.19 1095.11C408.026 1095.11 388.667 1089.96 375.108 1079.66C361.545 1069.38 353.457 1055.89 350.849 1039.23C357.378 1039.56 363.503 1039.8 369.225 1039.97C374.939 1040.14 381.064 1040.2 387.601 1040.2C415.711 1040.2 438.899 1038.33 457.206 1034.57C475.504 1030.82 490.05 1025.59 500.824 1018.88C511.606 1012.2 519.122 1004.18 523.376 994.876C527.621 985.558 529.748 975.188 529.748 963.747C529.748 952.636 527.452 942.179 522.882 932.38Z" fill="white"/>
<path d="M2144.62 1097.07C2141.67 1097.72 2135.79 1098.62 2126.97 1099.76C2118.15 1100.9 2106.22 1101.48 2091.19 1101.48C2077.79 1101.48 2066.6 1100.58 2057.62 1098.78C2048.63 1096.98 2041.52 1094.37 2036.3 1090.94C2031.07 1087.5 2027.39 1083.33 2025.27 1078.44C2023.14 1073.53 2022.08 1068.14 2022.08 1062.26C2022.08 1047.88 2027.14 1037.35 2037.28 1030.65C2047.4 1023.95 2063.58 1020.61 2085.81 1020.61C2103.77 1020.61 2117.25 1021.25 2126.24 1022.57C2135.22 1023.87 2141.35 1024.85 2144.62 1025.5V1097.07ZM2200 986.776C2200 967.832 2196.82 951.661 2190.45 938.254C2184.08 924.864 2175.16 914.078 2163.73 905.908C2152.29 897.742 2138.65 891.773 2122.81 888.022C2106.96 884.262 2089.39 882.377 2070.12 882.377C2054.1 882.377 2040.87 883.365 2030.41 885.327C2019.95 887.285 2011.62 889.984 2005.42 893.411C2004.26 894.047 2003.24 894.719 2002.21 895.39C2001.87 895.602 2001.52 895.793 2001.18 896.027C2000.11 896.776 1999.07 897.608 1998.11 898.578C1993.85 902.837 1991.71 908.052 1991.71 914.225C1991.71 920.394 1993.85 925.609 1998.11 929.872C2002.36 934.135 2007.57 936.257 2013.75 936.257C2016.74 936.257 2019.49 935.733 2022.03 934.737C2022.18 934.68 2022.34 934.62 2022.49 934.555C2023.12 934.312 2023.63 934.091 2024.29 933.844C2035.56 929.599 2050.51 927.472 2069.13 927.472C2080.24 927.472 2090.38 928.291 2099.53 929.924C2108.67 931.561 2116.51 934.507 2123.05 938.748C2129.59 942.993 2134.73 948.88 2138.49 956.396C2142.24 963.912 2144.13 973.386 2144.13 984.818C2138.57 984.168 2130.24 983.44 2119.13 982.613C2108.03 981.807 2096.26 981.391 2083.84 981.391C2062.28 981.391 2043.97 983.102 2028.94 986.542C2013.91 989.968 2001.75 995.119 1992.43 1001.97C1983.12 1008.84 1976.41 1017.34 1972.34 1027.46C1968.24 1037.59 1966.2 1049.36 1966.2 1062.75C1966.2 1072.89 1967.93 1082.77 1971.35 1092.4C1974.78 1102.04 1981.15 1110.55 1990.47 1117.89C1999.78 1125.25 2012.53 1131.13 2028.7 1135.54C2044.88 1139.95 2065.71 1142.16 2091.19 1142.16C2103.93 1142.16 2116.19 1141.82 2127.95 1141.17C2139.71 1140.51 2150.33 1139.78 2159.81 1138.97C2163.91 1138.61 2167.74 1138.26 2171.37 1137.91H2171.39C2179.38 1137.27 2186.17 1135.13 2191.7 1129.57C2197.23 1124.01 2200 1117.19 2200 1109.13C2200 1109 2199.97 1108.89 2199.97 1108.76H2200V986.776Z" fill="white"/>
<path fill-rule="evenodd" clip-rule="evenodd" d="M1007.06 6.49547C981.667 1.63077 943.061 -1.77414 914.085 0.993926C985.094 19.7943 1053.04 54.7353 1104.47 108.221C1206.31 214.127 1204.59 357.027 1070.56 420.325C1059.26 425.658 1056.99 431.358 1066.14 441.062C1115.39 498.533 1216.01 518.763 1305.83 491.151C1368.32 471.931 1443.56 415.4 1456.63 360.419C1456.64 358.349 1456.58 356.265 1456.46 354.194C1453.24 299.257 1406.07 245.425 1369.1 207.768C1324.64 162.504 1203.96 44.2089 1007.06 6.49547Z" fill="white"/>
<path d="M1177.32 534.955C936.852 515.535 999.422 279.517 999.422 279.517C1047.53 277.537 1119.26 308.471 1149.84 322.866C1174.84 256.007 1151.78 174.806 1087.75 108.221C1037 55.441 970.156 20.7469 900.17 1.77763C741.424 21.2754 743.369 357.881 743.369 357.881C743.117 733.33 909.479 720.577 932.096 720.312C1177.32 717.44 1456.66 478.229 1456.64 360.276C1456.64 360.276 1390.51 552.17 1177.32 534.955Z" fill="white"/>
</svg>
